<?xml version="1.0" encoding="utf-8"?>
<!-- Generator: Adobe Illustrator 21.1.0, SVG Export Plug-In . SVG Version: 6.00 Build 0)  -->
<svg version="1.1" id="Layer_1" xmlns="http://www.w3.org/2000/svg" xmlns:xlink="http://www.w3.org/1999/xlink" x="0px" y="0px"
	 viewBox="0 0 24 24" style="enable-background:new 0 0 24 24;" xml:space="preserve">
<style type="text/css">
	.st0{clip-path:url(#SVGID_2_);}
	.st1{clip-path:url(#SVGID_4_);}
	.st2{clip-path:url(#SVGID_6_);}
	.st3{clip-path:url(#SVGID_8_);}
	.st4{fill:#666666;}
</style>
<title>Artboard 1</title>
<g>
	<defs>
		<rect id="SVGID_1_" width="24" height="24"/>
	</defs>
	<clipPath id="SVGID_2_">
		<use xlink:href="#SVGID_1_"  style="overflow:visible;"/>
	</clipPath>
	<g class="st0">
		<g>
			<g>
				<defs>
					<rect id="SVGID_3_" width="24" height="24"/>
				</defs>
				<clipPath id="SVGID_4_">
					<use xlink:href="#SVGID_3_"  style="overflow:visible;"/>
				</clipPath>
				<g class="st1">
					<g>
						<defs>
							<path id="SVGID_5_" d="M22.7,0H1.3C0.6,0,0,0.6,0,1.3l0,0v21.3C0,23.4,0.6,24,1.3,24l0,0h11.5v-9.3H9.7v-3.6h3.1V8.4
								c0-3.1,1.9-4.8,4.7-4.8c0.9,0,1.9,0,2.8,0.1V7h-1.9c-1.5,0-1.8,0.7-1.8,1.8v2.3h3.6l-0.5,3.6h-3.1V24h6.1
								c0.7,0,1.3-0.6,1.3-1.3l0,0V1.3C24,0.6,23.4,0,22.7,0C22.7,0,22.7,0,22.7,0"/>
						</defs>
						<clipPath id="SVGID_6_">
							<use xlink:href="#SVGID_5_"  style="overflow:visible;"/>
						</clipPath>
						<g class="st2">
							<g>
								<defs>
									<rect id="SVGID_7_" width="24" height="24"/>
								</defs>
								<clipPath id="SVGID_8_">
									<use xlink:href="#SVGID_7_"  style="overflow:visible;"/>
								</clipPath>
								<g class="st3">
									<rect x="-5" y="-5" class="st4" width="34" height="34"/>
								</g>
							</g>
						</g>
					</g>
				</g>
			</g>
		</g>
	</g>
</g>
</svg>
