<?xml version="1.0" encoding="utf-8"?>
<!-- Generator: Adobe Illustrator 21.1.0, SVG Export Plug-In . SVG Version: 6.00 Build 0)  -->
<svg version="1.1" id="Layer_1" xmlns="http://www.w3.org/2000/svg" xmlns:xlink="http://www.w3.org/1999/xlink" x="0px" y="0px"
	 viewBox="0 0 24 24" style="enable-background:new 0 0 24 24;" xml:space="preserve">
<style type="text/css">
	.st0{clip-path:url(#SVGID_2_);}
	.st1{clip-path:url(#SVGID_4_);}
	.st2{clip-path:url(#SVGID_6_);}
	.st3{clip-path:url(#SVGID_8_);}
	.st4{fill:#666666;}
	.st5{clip-path:url(#SVGID_10_);}
	.st6{clip-path:url(#SVGID_12_);}
</style>
<title>Artboard 1</title>
<g>
	<defs>
		<polygon id="SVGID_1_" points="0,12 0,24 24,24 24,12 24,0 0,0 		"/>
	</defs>
	<clipPath id="SVGID_2_">
		<use xlink:href="#SVGID_1_"  style="overflow:visible;"/>
	</clipPath>
	<g class="st0">
		<g>
			<g>
				<defs>
					<rect id="SVGID_3_" x="0" y="0" width="24.1" height="24.1"/>
				</defs>
				<clipPath id="SVGID_4_">
					<use xlink:href="#SVGID_3_"  style="overflow:visible;"/>
				</clipPath>
				<g class="st1">
					<g>
						<defs>
							<path id="SVGID_5_" d="M12,2.2c3.2,0,3.6,0,4.9,0.1c0.8,0,1.5,0.1,2.2,0.4c0.5,0.2,1,0.5,1.4,0.9c0.4,0.4,0.7,0.9,0.9,1.4
								c0.3,0.7,0.4,1.5,0.4,2.2c0.1,1.3,0.1,1.6,0.1,4.9s0,3.6-0.1,4.9c0,0.8-0.1,1.5-0.4,2.2c-0.2,0.5-0.5,1-0.9,1.4
								c-0.4,0.4-0.9,0.7-1.4,0.9c-0.7,0.3-1.5,0.4-2.2,0.4c-1.3,0.1-1.6,0.1-4.9,0.1s-3.6,0-4.9-0.1c-0.8,0-1.5-0.1-2.2-0.4
								c-0.5-0.2-1-0.5-1.4-0.9c-0.4-0.4-0.7-0.9-0.9-1.4c-0.3-0.7-0.4-1.5-0.4-2.2c-0.1-1.3-0.1-1.6-0.1-4.9s0-3.6,0.1-4.9
								c0-0.8,0.1-1.5,0.4-2.2c0.2-0.5,0.5-1,0.9-1.4c0.4-0.4,0.9-0.7,1.4-0.9c0.7-0.3,1.5-0.4,2.2-0.4C8.4,2.2,8.8,2.2,12,2.2
								 M12,0C8.7,0,8.3,0,7,0.1c-1,0-2,0.2-2.9,0.6C3.3,1,2.6,1.4,2,2C1.4,2.6,0.9,3.4,0.6,4.2C0.3,5.1,0.1,6.1,0.1,7.1
								C0,8.4,0,8.8,0,12s0,3.7,0.1,5c0,1,0.2,2,0.6,2.9C0.9,20.7,1.4,21.4,2,22c0.6,0.6,1.3,1.1,2.1,1.4C5,23.8,6,23.9,7,24
								C8.3,24,8.7,24,12,24s3.7,0,5-0.1c1,0,2-0.2,2.9-0.6c0.8-0.3,1.5-0.8,2.1-1.4c0.6-0.6,1.1-1.3,1.4-2.1
								c0.4-0.9,0.5-1.9,0.6-2.9c0.1-1.3,0.1-1.7,0.1-5s0-3.7-0.1-5c0-1-0.2-2-0.6-2.9C23,3.4,22.6,2.6,22,2
								c-0.6-0.6-1.3-1.1-2.1-1.4c-0.9-0.4-1.9-0.5-2.9-0.6C15.6,0,15.2,0,12,0"/>
						</defs>
						<clipPath id="SVGID_6_">
							<use xlink:href="#SVGID_5_"  style="overflow:visible;"/>
						</clipPath>
						<g class="st2">
							<g>
								<defs>
									<rect id="SVGID_7_" x="0" y="0" width="24.1" height="24.1"/>
								</defs>
								<clipPath id="SVGID_8_">
									<use xlink:href="#SVGID_7_"  style="overflow:visible;"/>
								</clipPath>
								<g class="st3">
									<rect x="-5" y="-5" class="st4" width="34" height="34"/>
								</g>
							</g>
						</g>
					</g>
				</g>
			</g>
			<g>
				<defs>
					<path id="SVGID_9_" d="M12,5.9c-3.4,0-6.2,2.8-6.2,6.2s2.8,6.2,6.2,6.2c3.4,0,6.2-2.8,6.2-6.2S15.4,5.9,12,5.9L12,5.9 M12,16
						c-2.2,0-4-1.8-4-4s1.8-4,4-4s4,1.8,4,4S14.2,16,12,16"/>
				</defs>
				<clipPath id="SVGID_10_">
					<use xlink:href="#SVGID_9_"  style="overflow:visible;"/>
				</clipPath>
				<g class="st5">
					<rect x="0.8" y="0.8" class="st4" width="22.3" height="22.3"/>
				</g>
			</g>
			<g>
				<defs>
					<path id="SVGID_11_" d="M18.4,4.2c0.8,0,1.4,0.6,1.4,1.4s-0.6,1.4-1.4,1.4s-1.4-0.6-1.4-1.4S17.6,4.2,18.4,4.2L18.4,4.2"/>
				</defs>
				<clipPath id="SVGID_12_">
					<use xlink:href="#SVGID_11_"  style="overflow:visible;"/>
				</clipPath>
				<g class="st6">
					<rect x="11.9" y="-0.8" class="st4" width="12.9" height="12.9"/>
				</g>
			</g>
		</g>
	</g>
</g>
</svg>
