<?xml version="1.0" encoding="utf-8"?>
<!-- Generator: Adobe Illustrator 21.1.0, SVG Export Plug-In . SVG Version: 6.00 Build 0)  -->
<svg version="1.1" id="Layer_1" xmlns="http://www.w3.org/2000/svg" xmlns:xlink="http://www.w3.org/1999/xlink" x="0px" y="0px"
	 viewBox="0 0 24 24" style="enable-background:new 0 0 24 24;" xml:space="preserve">
<style type="text/css">
	.st0{fill:none;}
	.st1{fill:#666666;}
</style>
<title>Artboard 1</title>
<rect x="-24" y="-24" class="st0" width="72" height="72"/>
<polygon class="st0" points="12,-24 -24,-24 -24,48 12,48 48,48 48,-24 "/>
<path class="st1" d="M22.3,0H1.7C0.7,0,0,0.8,0,1.7v20.7C0,23.3,0.7,24,1.7,24h20.7c0.9,0,1.7-0.7,1.7-1.7V1.7C24,0.8,23.3,0,22.3,0
	C22.3,0,22.3,0,22.3,0z M7,20.5H3.5V9H7V20.5z M5.3,7.5c-1.1,0-2.1-0.9-2.1-2.1c0-1.1,0.8-2,1.9-2.1c0,0,0.1,0,0.1,0
	c1.1,0.1,2,1.1,1.9,2.2C7.1,6.6,6.3,7.4,5.3,7.5L5.3,7.5z M20.4,20.4h-3.5v-5.6c0-1.3,0-3.1-1.9-3.1s-2.1,1.5-2.1,2.9v5.7H9.3V9h3.4
	v1.5h0.1c0.7-1.2,2-1.9,3.4-1.9c3.6,0,4.3,2.4,4.3,5.5L20.4,20.4z"/>
</svg>
