<?xml version="1.0" encoding="utf-8"?>
<!-- Generator: Adobe Illustrator 21.1.0, SVG Export Plug-In . SVG Version: 6.00 Build 0)  -->
<svg version="1.1" id="Layer_1" xmlns="http://www.w3.org/2000/svg" xmlns:xlink="http://www.w3.org/1999/xlink" x="0px" y="0px"
	 viewBox="0 0 24 24" style="enable-background:new 0 0 24 24;" xml:space="preserve">
<style type="text/css">
	.st0{clip-path:url(#SVGID_2_);}
	.st1{clip-path:url(#SVGID_5_);}
	.st2{opacity:0;clip-path:url(#SVGID_6_);}
	.st3{clip-path:url(#SVGID_8_);}
	.st4{fill:#D8D8D8;}
	.st5{clip-path:url(#SVGID_10_);}
	.st6{clip-path:url(#SVGID_12_);}
	.st7{fill:none;stroke:#979797;stroke-width:2;stroke-miterlimit:10;}
	.st8{clip-path:url(#SVGID_6_);}
	.st9{clip-path:url(#SVGID_14_);}
	.st10{clip-path:url(#SVGID_16_);}
	.st11{clip-path:url(#SVGID_18_);}
	.st12{fill:white;}
</style>
<title>Artboard 1</title>
<g>
	<g>
		<defs>
			<rect id="SVGID_1_" width="24" height="24"/>
		</defs>
		<clipPath id="SVGID_2_">
			<use xlink:href="#SVGID_1_"  style="overflow:visible;"/>
		</clipPath>
		<g class="st0">
			<g>
				<defs>
					<rect id="SVGID_3_" width="24" height="24"/>
				</defs>
				<defs>
					<polygon id="SVGID_4_" points="12,2.2 24,2.2 24,21.8 12,21.8 0,21.8 0,2.2 					"/>
				</defs>
				<clipPath id="SVGID_5_">
					<use xlink:href="#SVGID_3_"  style="overflow:visible;"/>
				</clipPath>
				<clipPath id="SVGID_6_" class="st1">
					<use xlink:href="#SVGID_4_"  style="overflow:visible;"/>
				</clipPath>
				<g class="st2">
					<g>
						<defs>
							<rect id="SVGID_7_" y="2" width="24" height="20"/>
						</defs>
						<clipPath id="SVGID_8_">
							<use xlink:href="#SVGID_7_"  style="overflow:visible;"/>
						</clipPath>
						<g class="st3">
							<rect class="st4" width="24" height="24"/>
						</g>
					</g>
					<g>
						<defs>
							<rect id="SVGID_9_" width="24" height="24"/>
						</defs>
						<clipPath id="SVGID_10_">
							<use xlink:href="#SVGID_9_"  style="overflow:visible;"/>
						</clipPath>
						<g class="st5">
							<g>
								<defs>
									<rect id="SVGID_11_" y="2" width="24" height="20"/>
								</defs>
								<clipPath id="SVGID_12_">
									<use xlink:href="#SVGID_11_"  style="overflow:visible;"/>
								</clipPath>
								<g class="st6">
									<rect class="st7" width="24" height="24"/>
								</g>
							</g>
						</g>
					</g>
				</g>
				<g class="st8">
					<g>
						<g>
							<defs>
								<rect id="SVGID_13_" y="2" width="24" height="20"/>
							</defs>
							<clipPath id="SVGID_14_">
								<use xlink:href="#SVGID_13_"  style="overflow:visible;"/>
							</clipPath>
							<g class="st9">
								<g>
									<defs>
										<path id="SVGID_15_" d="M7.5,21.8c7.7,0,14-6.2,14-13.8c0-0.1,0-0.1,0-0.2c0-0.2,0-0.4,0-0.6c1-0.7,1.8-1.6,2.5-2.5
											c-0.9,0.4-1.9,0.7-2.8,0.8c1-0.6,1.8-1.6,2.2-2.7c-1,0.6-2,1-3.1,1.2c-1.9-2-5-2.1-7-0.2c-1,0.9-1.6,2.2-1.6,3.6
											c0,0.4,0,0.8,0.1,1.1c-4-0.2-7.6-2.1-10.2-5.1C0.4,5.4,1,8.3,3.2,9.7C2.4,9.7,1.6,9.5,1,9.1v0.1c0,2.3,1.7,4.4,4,4.8
											c-0.7,0.2-1.5,0.2-2.2,0.1c0.6,2,2.5,3.4,4.6,3.4c-1.7,1.4-3.9,2.1-6.1,2.1c-0.4,0-0.8,0-1.2-0.1
											C2.3,21,4.9,21.8,7.5,21.8"/>
									</defs>
									<clipPath id="SVGID_16_">
										<use xlink:href="#SVGID_15_"  style="overflow:visible;"/>
									</clipPath>
									<g class="st10">
										<g>
											<defs>
												<rect id="SVGID_17_" y="2" width="24" height="20"/>
											</defs>
											<clipPath id="SVGID_18_">
												<use xlink:href="#SVGID_17_"  style="overflow:visible;"/>
											</clipPath>
											<g class="st11">
												<rect x="-5" y="-2.8" class="st12" width="34" height="29.5"/>
											</g>
										</g>
									</g>
								</g>
							</g>
						</g>
					</g>
				</g>
			</g>
		</g>
	</g>
</g>
</svg>
